<svg xmlns="http://www.w3.org/2000/svg" xmlns:xlink="http://www.w3.org/1999/xlink" xml:space="preserve" width="400" height="600"><rect x="0" y="0" width="400" height="600" style="fill: rgb(255, 255, 255); fill-opacity: 1;"/><g class="subplot xy"><rect style="stroke-width: 0; fill: rgb(255, 255, 255); fill-opacity: 1;" x="10" y="100" width="371" height="420"/><g transform="translate(10,100)"><path class="ygrid crisp" d="M0,0h371" transform="translate(0,405)" style="stroke: rgb(238, 238, 238); stroke-opacity: 1; stroke-width: 1px;"/><path class="ygrid crisp" d="M0,0h371" transform="translate(0,375)" style="stroke: rgb(238, 238, 238); stroke-opacity: 1; stroke-width: 1px;"/><path class="ygrid crisp" d="M0,0h371" transform="translate(0,345)" style="stroke: rgb(238, 238, 238); stroke-opacity: 1; stroke-width: 1px;"/><path class="ygrid crisp" d="M0,0h371" transform="translate(0,315)" style="stroke: rgb(238, 238, 238); stroke-opacity: 1; stroke-width: 1px;"/><path class="ygrid crisp" d="M0,0h371" transform="translate(0,285)" style="stroke: rgb(238, 238, 238); stroke-opacity: 1; stroke-width: 1px;"/><path class="ygrid crisp" d="M0,0h371" transform="translate(0,255)" style="stroke: rgb(238, 238, 238); stroke-opacity: 1; stroke-width: 1px;"/><path class="ygrid crisp" d="M0,0h371" transform="translate(0,225)" style="stroke: rgb(238, 238, 238); stroke-opacity: 1; stroke-width: 1px;"/><path class="ygrid crisp" d="M0,0h371" transform="translate(0,195)" style="stroke: rgb(238, 238, 238); stroke-opacity: 1; stroke-width: 1px;"/><path class="ygrid crisp" d="M0,0h371" transform="translate(0,165)" style="stroke: rgb(238, 238, 238); stroke-opacity: 1; stroke-width: 1px;"/><path class="ygrid crisp" d="M0,0h371" transform="translate(0,135)" style="stroke: rgb(238, 238, 238); stroke-opacity: 1; stroke-width: 1px;"/><path class="ygrid crisp" d="M0,0h371" transform="translate(0,105)" style="stroke: rgb(238, 238, 238); stroke-opacity: 1; stroke-width: 1px;"/><path class="ygrid crisp" d="M0,0h371" transform="translate(0,75)" style="stroke: rgb(238, 238, 238); stroke-opacity: 1; stroke-width: 1px;"/><path class="ygrid crisp" d="M0,0h371" transform="translate(0,45)" style="stroke: rgb(238, 238, 238); stroke-opacity: 1; stroke-width: 1px;"/><path class="ygrid crisp" d="M0,0h371" transform="translate(0,15)" style="stroke: rgb(238, 238, 238); stroke-opacity: 1; stroke-width: 1px;"/></g><g/><g transform="translate(10,100)"/><g/><svg preserveAspectRatio="none" style="fill: none;" x="10" y="100" width="371" height="420" viewBox="0 0 371 420"><g class="maplayer"/><g class="barlayer"><g class="trace bars" style="opacity: 0.8;"><g class="points"><path d="M0,417V393H352.45V417Z" style="stroke-width: 0px; fill: rgb(31, 119, 180); fill-opacity: 1;"/><path d="M0,387V363H281.96V387Z" style="stroke-width: 0px; fill: rgb(31, 119, 180); fill-opacity: 1;"/><path d="M0,357V333H211.47V357Z" style="stroke-width: 0px; fill: rgb(31, 119, 180); fill-opacity: 1;"/><path d="M0,327V303H140.98V327Z" style="stroke-width: 0px; fill: rgb(31, 119, 180); fill-opacity: 1;"/><path d="M0,297V273H140.98V297Z" style="stroke-width: 0px; fill: rgb(31, 119, 180); fill-opacity: 1;"/><path d="M0,267V243H281.96V267Z" style="stroke-width: 0px; fill: rgb(31, 119, 180); fill-opacity: 1;"/></g></g><g class="trace bars" style="opacity: 0.8;"><g class="points"><path d="M0,237V213H352.45V237Z" style="stroke-width: 0px; fill: rgb(255, 127, 14); fill-opacity: 1;"/><path d="M0,207V183H281.96V207Z" style="stroke-width: 0px; fill: rgb(255, 127, 14); fill-opacity: 1;"/><path d="M0,177V153H211.47V177Z" style="stroke-width: 0px; fill: rgb(255, 127, 14); fill-opacity: 1;"/><path d="M0,147V123H140.98V147Z" style="stroke-width: 0px; fill: rgb(255, 127, 14); fill-opacity: 1;"/></g></g><g class="trace bars" style="opacity: 0.8;"><g class="points"><path d="M0,117V93H352.45V117Z" style="stroke-width: 0px; fill: rgb(44, 160, 44); fill-opacity: 1;"/><path d="M0,87V63H281.96V87Z" style="stroke-width: 0px; fill: rgb(44, 160, 44); fill-opacity: 1;"/><path d="M0,57V33H140.98V57Z" style="stroke-width: 0px; fill: rgb(44, 160, 44); fill-opacity: 1;"/><path d="M0,27V3H70.49V27Z" style="stroke-width: 0px; fill: rgb(44, 160, 44); fill-opacity: 1;"/></g></g></g><g class="errorlayer"><g class="errorbars"/><g class="errorbars"/><g class="errorbars"/></g><g class="scatterlayer"/><g class="boxlayer"/></svg><g/><path style="fill: none; stroke-width: 1px; stroke: rgb(0, 0, 0); stroke-opacity: 0;" class="crisp" transform="translate(10,100)" d="M-1,420.5h373"/><path style="fill: none; stroke: rgb(0, 0, 0); stroke-opacity: 0;" class="crisp" transform="translate(10,100)" d="M0.5,-1v421" stroke-width="1px"/><g/><g transform="translate(10,100)"><g class="xtick" data-bb="4800"><text text-anchor="middle" x="0" y="435" style="font-family: 'Open sans',verdana,arial,sans-serif; font-size: 12px; fill: rgb(68, 68, 68); fill-opacity: 1;" transform="translate(0,0)" data-bb="4793">0</text></g><g class="xtick" data-bb="4801"><text text-anchor="middle" x="0" y="435" style="font-family: 'Open sans',verdana,arial,sans-serif; font-size: 12px; fill: rgb(68, 68, 68); fill-opacity: 1;" transform="translate(70.49,0)" data-bb="4794">1</text></g><g class="xtick" data-bb="4802"><text text-anchor="middle" x="0" y="435" style="font-family: 'Open sans',verdana,arial,sans-serif; font-size: 12px; fill: rgb(68, 68, 68); fill-opacity: 1;" transform="translate(140.98,0)" data-bb="4795">2</text></g><g class="xtick" data-bb="4803"><text text-anchor="middle" x="0" y="435" style="font-family: 'Open sans',verdana,arial,sans-serif; font-size: 12px; fill: rgb(68, 68, 68); fill-opacity: 1;" transform="translate(211.47,0)" data-bb="4796">3</text></g><g class="xtick" data-bb="4804"><text text-anchor="middle" x="0" y="435" style="font-family: 'Open sans',verdana,arial,sans-serif; font-size: 12px; fill: rgb(68, 68, 68); fill-opacity: 1;" transform="translate(281.96,0)" data-bb="4797">4</text></g><g class="xtick" data-bb="4805"><text text-anchor="middle" x="0" y="435" style="font-family: 'Open sans',verdana,arial,sans-serif; font-size: 12px; fill: rgb(68, 68, 68); fill-opacity: 1;" transform="translate(352.45,0)" data-bb="4798">5</text></g></g><g transform="translate(10,100)"><g class="ytick"><text text-anchor="start" x="3" y="6" style="font-family: 'Open sans',verdana,arial,sans-serif; font-size: 12px; fill: rgb(68, 68, 68); fill-opacity: 1;" transform="translate(0,405)">Activity</text></g><g class="ytick"><text text-anchor="start" x="3" y="6" style="font-family: 'Open sans',verdana,arial,sans-serif; font-size: 12px; fill: rgb(68, 68, 68); fill-opacity: 1;" transform="translate(0,375)">Diversity</text></g><g class="ytick"><text text-anchor="start" x="3" y="6" style="font-family: 'Open sans',verdana,arial,sans-serif; font-size: 12px; fill: rgb(68, 68, 68); fill-opacity: 1;" transform="translate(0,345)">Responsiveness</text></g><g class="ytick"><text text-anchor="start" x="3" y="6" style="font-family: 'Open sans',verdana,arial,sans-serif; font-size: 12px; fill: rgb(68, 68, 68); fill-opacity: 1;" transform="translate(0,315)">Support</text></g><g class="ytick"><text text-anchor="start" x="3" y="6" style="font-family: 'Open sans',verdana,arial,sans-serif; font-size: 12px; fill: rgb(68, 68, 68); fill-opacity: 1;" transform="translate(0,285)">Usage</text></g><g class="ytick"><text text-anchor="start" x="3" y="6" style="font-family: 'Open sans',verdana,arial,sans-serif; font-size: 12px; fill: rgb(68, 68, 68); fill-opacity: 1;" transform="translate(0,255)">User feedback</text></g><g class="ytick"><text text-anchor="start" x="3" y="6" style="font-family: 'Open sans',verdana,arial,sans-serif; font-size: 12px; fill: rgb(68, 68, 68); fill-opacity: 1;" transform="translate(0,225)">Configuration management</text></g><g class="ytick"><text text-anchor="start" x="3" y="6" style="font-family: 'Open sans',verdana,arial,sans-serif; font-size: 12px; fill: rgb(68, 68, 68); fill-opacity: 1;" transform="translate(0,195)">Change management</text></g><g class="ytick"><text text-anchor="start" x="3" y="6" style="font-family: 'Open sans',verdana,arial,sans-serif; font-size: 12px; fill: rgb(68, 68, 68); fill-opacity: 1;" transform="translate(0,165)">Planning management</text></g><g class="ytick"><text text-anchor="start" x="3" y="6" style="font-family: 'Open sans',verdana,arial,sans-serif; font-size: 12px; fill: rgb(68, 68, 68); fill-opacity: 1;" transform="translate(0,135)">Test management</text></g><g class="ytick"><text text-anchor="start" x="3" y="6" style="font-family: 'Open sans',verdana,arial,sans-serif; font-size: 12px; fill: rgb(68, 68, 68); fill-opacity: 1;" transform="translate(0,105)">Analysability</text></g><g class="ytick"><text text-anchor="start" x="3" y="6" style="font-family: 'Open sans',verdana,arial,sans-serif; font-size: 12px; fill: rgb(68, 68, 68); fill-opacity: 1;" transform="translate(0,75)">Changeability</text></g><g class="ytick"><text text-anchor="start" x="3" y="6" style="font-family: 'Open sans',verdana,arial,sans-serif; font-size: 12px; fill: rgb(68, 68, 68); fill-opacity: 1;" transform="translate(0,45)">Reliability</text></g><g class="ytick"><text text-anchor="start" x="3" y="6" style="font-family: 'Open sans',verdana,arial,sans-serif; font-size: 12px; fill: rgb(68, 68, 68); fill-opacity: 1;" transform="translate(0,15)">Reusability</text></g></g><g/></g><g transform="translate(10,100)"><rect class="drag nsewdrag cursor-crosshair" style="fill: black; opacity: 0; stroke-width: 0;" data-subplot="xy" x="0" y="0" width="371" height="420"/><rect class="drag nwdrag cursor-nw-resize" style="fill: black; opacity: 0; stroke-width: 0;" data-subplot="xy" x="-20" y="-20" width="20" height="20"/><rect class="drag nedrag cursor-ne-resize" style="fill: black; opacity: 0; stroke-width: 0;" data-subplot="xy" x="371" y="-20" width="20" height="20"/><rect class="drag swdrag cursor-sw-resize" style="fill: black; opacity: 0; stroke-width: 0;" data-subplot="xy" x="-20" y="420" width="20" height="20"/><rect class="drag sedrag cursor-se-resize" style="fill: black; opacity: 0; stroke-width: 0;" data-subplot="xy" x="371" y="420" width="20" height="20"/><rect class="drag ewdrag cursor-ew-resize" style="fill: black; opacity: 0; stroke-width: 0;" data-subplot="xy" x="37.1" y="420.5" width="296.8" height="20"/><rect class="drag wdrag cursor-w-resize" style="fill: black; opacity: 0; stroke-width: 0;" data-subplot="xy" x="0" y="420.5" width="37.1" height="20"/><rect class="drag edrag cursor-e-resize" style="fill: black; opacity: 0; stroke-width: 0;" data-subplot="xy" x="333.90000000000003" y="420.5" width="37.1" height="20"/><rect class="drag nsdrag cursor-ns-resize" style="fill: black; opacity: 0; stroke-width: 0;" data-subplot="xy" x="0.5" y="42" width="20" height="336"/><rect class="drag sdrag cursor-s-resize" style="fill: black; opacity: 0; stroke-width: 0;" data-subplot="xy" x="0.5" y="378" width="20" height="42"/><rect class="drag ndrag cursor-n-resize" style="fill: black; opacity: 0; stroke-width: 0;" data-subplot="xy" x="0.5" y="0" width="20" height="42"/></g><g class="infolayer"><g class="g-gtitle"><text class="gtitle" style="font-family: 'Open sans',verdana,arial,sans-serif; font-size: 16.8px; fill: rgb(68, 68, 68); opacity: 1;" x="200" y="50" text-anchor="middle">CDT Attributes</text></g><g class="g-xtitle" data-bb="4799"/><g class="g-ytitle"/><svg class="legend" x="280" y="33" width="108" height="67"><rect class="bg" style="stroke: rgb(68, 68, 68); stroke-opacity: 1; fill: rgb(255, 255, 255); opacity: 1; stroke-width: 0px;" x="0" y="0" width="108" height="67"/><g class="traces" transform="translate(0,14.5)"><g class="legendfill"/><g class="legendlines"/><g class="legendsymbols" style="opacity: 0.8;"><g class="legendpoints"><path class="legendbar" d="M6,6H-6V-6H6Z" transform="translate(20,0)" style="stroke-width: 0px; fill: rgb(44, 160, 44); fill-opacity: 1;"/></g></g><text class="legendtext text-2" x="40" y="4.680000000000001" style="text-anchor: start; font-family: 'Open sans',verdana,arial,sans-serif; font-size: 12px; fill: rgb(68, 68, 68); opacity: 1; pointer-events: all;" xml:space="preserve" data-bb="4790">Product</text></g><g class="traces" transform="translate(0,33.5)"><g class="legendfill"/><g class="legendlines"/><g class="legendsymbols" style="opacity: 0.8;"><g class="legendpoints"><path class="legendbar" d="M6,6H-6V-6H6Z" transform="translate(20,0)" style="stroke-width: 0px; fill: rgb(255, 127, 14); fill-opacity: 1;"/></g></g><text class="legendtext text-1" x="40" y="4.680000000000001" style="text-anchor: start; font-family: 'Open sans',verdana,arial,sans-serif; font-size: 12px; fill: rgb(68, 68, 68); opacity: 1; pointer-events: all;" xml:space="preserve" data-bb="4791">Process</text></g><g class="traces" transform="translate(0,52.5)"><g class="legendfill"/><g class="legendlines"/><g class="legendsymbols" style="opacity: 0.8;"><g class="legendpoints"><path class="legendbar" d="M6,6H-6V-6H6Z" transform="translate(20,0)" style="stroke-width: 0px; fill: rgb(31, 119, 180); fill-opacity: 1;"/></g></g><text class="legendtext text-0" x="40" y="4.680000000000001" style="text-anchor: start; font-family: 'Open sans',verdana,arial,sans-serif; font-size: 12px; fill: rgb(68, 68, 68); opacity: 1; pointer-events: all;" xml:space="preserve" data-bb="4792">Ecosystem</text></g></svg></g><g class="hoverlayer"/><text class="js-plot-link-container" text-anchor="end" x="393" y="591" style="font-family: 'Open Sans',Arial,sans-serif; font-size: 12px; fill: rgb(68, 68, 68);"><tspan class="js-link-to-tool"/><tspan class="js-link-spacer"/><tspan class="js-sourcelinks"><tspan>Source: </tspan><a xlink:href="#">CDT Attributes</a></tspan></text></svg>